<mxfile host="65bd71144e">
    <diagram id="9akwsX0dmF9WM1wy7fNp" name="Страница 1">
        <mxGraphModel dx="1118" dy="478" grid="1" gridSize="10" guides="1" tooltips="1" connect="1" arrows="1" fold="1" page="1" pageScale="1" pageWidth="827" pageHeight="1169" math="0" shadow="0">
            <root>
                <mxCell id="0"/>
                <mxCell id="1" parent="0"/>
                <mxCell id="2" value="&lt;div style=&quot;background-color: rgb(255 , 255 , 255) ; font-family: &amp;#34;consolas&amp;#34; , &amp;#34;courier new&amp;#34; , monospace ; font-size: 16px ; line-height: 22px&quot;&gt;&lt;span style=&quot;color: #008000&quot;&gt;метод, формирующий новый массив на основе имеющегося&lt;/span&gt;&lt;/div&gt;" style="shape=hexagon;perimeter=hexagonPerimeter2;whiteSpace=wrap;html=1;fixedSize=1;" vertex="1" parent="1">
                    <mxGeometry x="30" y="40" width="210" height="160" as="geometry"/>
                </mxCell>
                <mxCell id="5" value="&lt;h1&gt;&lt;div style=&quot;background-color: rgb(255 , 255 , 255) ; font-family: &amp;#34;consolas&amp;#34; , &amp;#34;courier new&amp;#34; , monospace ; font-weight: normal ; font-size: 16px ; line-height: 22px&quot;&gt;&lt;div&gt;&lt;span style=&quot;color: #0000ff&quot;&gt;int&lt;/span&gt;[] &lt;span style=&quot;color: #001080&quot;&gt;items&lt;/span&gt; = &lt;span style=&quot;color: #0000ff&quot;&gt;new&lt;/span&gt; &lt;span style=&quot;color: #0000ff&quot;&gt;int&lt;/span&gt;[&lt;span style=&quot;color: #001080&quot;&gt;evenCounts&lt;/span&gt;];&lt;/div&gt;&lt;div&gt;&amp;nbsp; &lt;span style=&quot;color: #0000ff&quot;&gt;int&lt;/span&gt; &lt;span style=&quot;color: #001080&quot;&gt;length&lt;/span&gt; = &lt;span style=&quot;color: #001080&quot;&gt;collectionElements&lt;/span&gt;.&lt;span style=&quot;color: #001080&quot;&gt;Length&lt;/span&gt;;&lt;/div&gt;&lt;div&gt;&amp;nbsp; &lt;span style=&quot;color: #0000ff&quot;&gt;int&lt;/span&gt; &lt;span style=&quot;color: #001080&quot;&gt;position&lt;/span&gt; = &lt;span style=&quot;color: #098658&quot;&gt;0&lt;/span&gt;;&lt;/div&gt;&lt;div&gt;&amp;nbsp; &lt;span style=&quot;color: #0000ff&quot;&gt;int&lt;/span&gt; &lt;span style=&quot;color: #001080&quot;&gt;indexInItems&lt;/span&gt; = &lt;span style=&quot;color: #098658&quot;&gt;0&lt;/span&gt;;&lt;/div&gt;&lt;div&gt;&amp;nbsp; &lt;span style=&quot;color: #af00db&quot;&gt;while&lt;/span&gt; (&lt;span style=&quot;color: #001080&quot;&gt;position&lt;/span&gt; &amp;lt; &lt;span style=&quot;color: #001080&quot;&gt;length&lt;/span&gt;)&lt;/div&gt;&lt;div&gt;&amp;nbsp; {&lt;/div&gt;&lt;div&gt;&amp;nbsp; &amp;nbsp; &lt;span style=&quot;color: #af00db&quot;&gt;if&lt;/span&gt; (&lt;span style=&quot;color: #001080&quot;&gt;collectionElements&lt;/span&gt;[&lt;span style=&quot;color: #001080&quot;&gt;position&lt;/span&gt;] % &lt;span style=&quot;color: #098658&quot;&gt;2&lt;/span&gt; == &lt;span style=&quot;color: #098658&quot;&gt;0&lt;/span&gt;)&lt;/div&gt;&lt;div&gt;&amp;nbsp; &amp;nbsp; {&lt;/div&gt;&lt;div&gt;&amp;nbsp; &amp;nbsp; &amp;nbsp; &lt;span style=&quot;color: #001080&quot;&gt;items&lt;/span&gt;[&lt;span style=&quot;color: #001080&quot;&gt;indexInItems&lt;/span&gt;] = &lt;span style=&quot;color: #001080&quot;&gt;collectionElements&lt;/span&gt;[&lt;span style=&quot;color: #001080&quot;&gt;position&lt;/span&gt;];&lt;/div&gt;&lt;div&gt;&amp;nbsp; &amp;nbsp; &amp;nbsp; &lt;span style=&quot;color: #001080&quot;&gt;indexInItems&lt;/span&gt;++;&lt;/div&gt;&lt;div&gt;&amp;nbsp; &amp;nbsp; }&lt;/div&gt;&lt;div&gt;&amp;nbsp; &amp;nbsp; &lt;span style=&quot;color: #001080&quot;&gt;position&lt;/span&gt;++;&lt;/div&gt;&lt;div&gt;&amp;nbsp; }&lt;/div&gt;&lt;br&gt;&lt;div&gt;&amp;nbsp; &lt;span style=&quot;color: #af00db&quot;&gt;return&lt;/span&gt; &lt;span style=&quot;color: #001080&quot;&gt;items&lt;/span&gt;;&lt;/div&gt;&lt;/div&gt;&lt;/h1&gt;" style="text;html=1;strokeColor=none;fillColor=none;spacing=5;spacingTop=-20;whiteSpace=wrap;overflow=hidden;rounded=0;" vertex="1" parent="1">
                    <mxGeometry x="260" y="20" width="510" height="340" as="geometry"/>
                </mxCell>
                <mxCell id="8" style="edgeStyle=none;html=1;" edge="1" parent="1" source="6" target="7">
                    <mxGeometry relative="1" as="geometry"/>
                </mxCell>
                <mxCell id="6" value="start" style="ellipse;whiteSpace=wrap;html=1;" vertex="1" parent="1">
                    <mxGeometry x="60" y="420" width="120" height="80" as="geometry"/>
                </mxCell>
                <mxCell id="10" value="" style="edgeStyle=none;html=1;" edge="1" parent="1" source="7" target="9">
                    <mxGeometry relative="1" as="geometry"/>
                </mxCell>
                <mxCell id="7" value="&lt;span style=&quot;color: rgb(0 , 16 , 128) ; font-family: &amp;#34;consolas&amp;#34; , &amp;#34;courier new&amp;#34; , monospace ; font-size: 16px ; text-align: left ; background-color: rgb(255 , 255 , 255)&quot;&gt;evenCounts&lt;br&gt;&lt;/span&gt;&lt;span style=&quot;color: rgb(0 , 16 , 128) ; font-family: &amp;#34;consolas&amp;#34; , &amp;#34;courier new&amp;#34; , monospace ; font-size: 16px ; text-align: left ; background-color: rgb(255 , 255 , 255)&quot;&gt;collectionElements&lt;br&gt;&lt;/span&gt;&lt;span style=&quot;font-family: &amp;#34;consolas&amp;#34; , &amp;#34;courier new&amp;#34; , monospace ; font-size: 16px ; text-align: left ; color: rgb(0 , 16 , 128)&quot;&gt;length&lt;/span&gt;&lt;span style=&quot;font-family: &amp;#34;consolas&amp;#34; , &amp;#34;courier new&amp;#34; , monospace ; font-size: 16px ; text-align: left&quot;&gt;&amp;nbsp;&lt;/span&gt;&lt;span style=&quot;font-family: &amp;#34;consolas&amp;#34; , &amp;#34;courier new&amp;#34; , monospace ; font-size: 16px ; text-align: left&quot;&gt;=&lt;/span&gt;&lt;span style=&quot;font-family: &amp;#34;consolas&amp;#34; , &amp;#34;courier new&amp;#34; , monospace ; font-size: 16px ; text-align: left&quot;&gt;&amp;nbsp;&lt;/span&gt;&lt;span style=&quot;font-family: &amp;#34;consolas&amp;#34; , &amp;#34;courier new&amp;#34; , monospace ; font-size: 16px ; text-align: left ; color: rgb(0 , 16 , 128)&quot;&gt;collectionElements&lt;/span&gt;&lt;span style=&quot;font-family: &amp;#34;consolas&amp;#34; , &amp;#34;courier new&amp;#34; , monospace ; font-size: 16px ; text-align: left&quot;&gt;.&lt;/span&gt;&lt;span style=&quot;font-family: &amp;#34;consolas&amp;#34; , &amp;#34;courier new&amp;#34; , monospace ; font-size: 16px ; text-align: left ; color: rgb(0 , 16 , 128)&quot;&gt;Length&lt;/span&gt;&lt;span style=&quot;font-family: &amp;#34;consolas&amp;#34; , &amp;#34;courier new&amp;#34; , monospace ; font-size: 16px ; text-align: left&quot;&gt;;&lt;/span&gt;&lt;div style=&quot;font-family: &amp;#34;consolas&amp;#34; , &amp;#34;courier new&amp;#34; , monospace ; font-size: 16px&quot;&gt;&amp;nbsp;&lt;span style=&quot;color: rgb(0 , 16 , 128)&quot;&gt;position&lt;/span&gt;&amp;nbsp;=&amp;nbsp;&lt;span style=&quot;color: rgb(9 , 134 , 88)&quot;&gt;0&lt;/span&gt;&lt;/div&gt;&lt;div style=&quot;font-family: &amp;#34;consolas&amp;#34; , &amp;#34;courier new&amp;#34; , monospace ; font-size: 16px&quot;&gt;&lt;span style=&quot;text-align: left ; color: rgb(0 , 16 , 128)&quot;&gt;indexInItems&lt;/span&gt;&lt;span style=&quot;text-align: left&quot;&gt;&amp;nbsp;&lt;/span&gt;&lt;span style=&quot;text-align: left&quot;&gt;=&lt;/span&gt;&lt;span style=&quot;text-align: left&quot;&gt;&amp;nbsp;&lt;/span&gt;&lt;span style=&quot;text-align: left ; color: rgb(9 , 134 , 88)&quot;&gt;0&lt;/span&gt;&lt;br&gt;&lt;/div&gt;" style="shape=parallelogram;perimeter=parallelogramPerimeter;whiteSpace=wrap;html=1;fixedSize=1;" vertex="1" parent="1">
                    <mxGeometry x="250" y="410" width="460" height="100" as="geometry"/>
                </mxCell>
                <mxCell id="9" value="" style="rhombus;whiteSpace=wrap;html=1;" vertex="1" parent="1">
                    <mxGeometry x="440" y="545" width="80" height="80" as="geometry"/>
                </mxCell>
            </root>
        </mxGraphModel>
    </diagram>
</mxfile>